# xmcd
#
# Track frame offsets: 
#        150
#        13424
#        38204
#        54702
#        77292
#        97971
#        118824
#        147089
#        173416
#        194710
#        221610
#        239865
#        258684
#        281011
#
# Disc length: 3961 seconds
#
# Revision: 0
# Processed by: cddbd v1.5.2PL0 Copyright (c) Steve Scherf et al.
# Submitted via: ExactAudioCopy v0.99pb5
#
DISCID=d20f770e
DTITLE=Delayed Delivery - Blues Cargo
DYEAR=2009
DGENRE=Blues
TTITLE0=Straight Tequila
TTITLE1=Dont Want To Be Crazy
TTITLE2=Everyday I Have The Blues
TTITLE3=95 Percent
TTITLE4=Aint That I Dont Love You
TTITLE5=Boogie 69
TTITLE6=I Got The Blues
TTITLE7=Handy Man
TTITLE8=Go Away
TTITLE9=Emptiness 
TTITLE10=Garbage Bin
TTITLE11=Two Wheel Mama
TTITLE12=Six Hundred Miles
TTITLE13=I Dont Care
EXTD=
EXTT0=
EXTT1=
EXTT2=
EXTT3=
EXTT4=
EXTT5=
EXTT6=
EXTT7=
EXTT8=
EXTT9=
EXTT10=
EXTT11=
EXTT12=
EXTT13=
PLAYORDER=
